<svg width="49" height="49" viewBox="0 0 49 49" fill="none" xmlns="http://www.w3.org/2000/svg">
<g clip-path="url(#clip0_153_88)">
<path d="M48.5 24.5703C48.5 11.3155 37.7548 0.570312 24.5 0.570312C11.2452 0.570312 0.5 11.3155 0.5 24.5703C0.5 36.5492 9.27641 46.4783 20.75 48.2788V31.5078H14.6562V24.5703H20.75V19.2828C20.75 13.2678 24.3331 9.94531 29.8152 9.94531C32.4402 9.94531 35.1875 10.4141 35.1875 10.4141V16.3203H32.1613C29.18 16.3203 28.25 18.1705 28.25 20.0703V24.5703H34.9062L33.8422 31.5078H28.25V48.2788C39.7236 46.4783 48.5 36.5492 48.5 24.5703Z" fill="black"/>
</g>
<defs>
<clipPath id="clip0_153_88">
<rect width="48" height="48" fill="white" transform="translate(0.5 0.570312)"/>
</clipPath>
</defs>
</svg>
