<svg width="49" height="49" viewBox="0 0 49 49" fill="none" xmlns="http://www.w3.org/2000/svg">
<path d="M24.5 4.89219C30.9125 4.89219 31.6719 4.92031 34.1938 5.03281C36.5375 5.13594 37.8031 5.52969 38.6469 5.85781C39.7625 6.28906 40.5688 6.81406 41.4031 7.64844C42.2469 8.49219 42.7625 9.28906 43.1938 10.4047C43.5219 11.2484 43.9156 12.5234 44.0188 14.8578C44.1313 17.3891 44.1594 18.1484 44.1594 24.5516C44.1594 30.9641 44.1313 31.7234 44.0188 34.2453C43.9156 36.5891 43.5219 37.8547 43.1938 38.6984C42.7625 39.8141 42.2375 40.6203 41.4031 41.4547C40.5594 42.2984 39.7625 42.8141 38.6469 43.2453C37.8031 43.5734 36.5281 43.9672 34.1938 44.0703C31.6625 44.1828 30.9031 44.2109 24.5 44.2109C18.0875 44.2109 17.3281 44.1828 14.8063 44.0703C12.4625 43.9672 11.1969 43.5734 10.3531 43.2453C9.2375 42.8141 8.43125 42.2891 7.59688 41.4547C6.75313 40.6109 6.2375 39.8141 5.80625 38.6984C5.47813 37.8547 5.08438 36.5797 4.98125 34.2453C4.86875 31.7141 4.84063 30.9547 4.84063 24.5516C4.84063 18.1391 4.86875 17.3797 4.98125 14.8578C5.08438 12.5141 5.47813 11.2484 5.80625 10.4047C6.2375 9.28906 6.7625 8.48281 7.59688 7.64844C8.44063 6.80469 9.2375 6.28906 10.3531 5.85781C11.1969 5.52969 12.4719 5.13594 14.8063 5.03281C17.3281 4.92031 18.0875 4.89219 24.5 4.89219ZM24.5 0.570312C17.9844 0.570312 17.1688 0.598437 14.6094 0.710938C12.0594 0.823438 10.3063 1.23594 8.7875 1.82656C7.20313 2.44531 5.8625 3.26094 4.53125 4.60156C3.19063 5.93281 2.375 7.27344 1.75625 8.84844C1.16562 10.3766 0.753125 12.1203 0.640625 14.6703C0.528125 17.2391 0.5 18.0547 0.5 24.5703C0.5 31.0859 0.528125 31.9016 0.640625 34.4609C0.753125 37.0109 1.16562 38.7641 1.75625 40.2828C2.375 41.8672 3.19063 43.2078 4.53125 44.5391C5.8625 45.8703 7.20313 46.6953 8.77813 47.3047C10.3063 47.8953 12.05 48.3078 14.6 48.4203C17.1594 48.5328 17.975 48.5609 24.4906 48.5609C31.0063 48.5609 31.8219 48.5328 34.3813 48.4203C36.9313 48.3078 38.6844 47.8953 40.2031 47.3047C41.7781 46.6953 43.1188 45.8703 44.45 44.5391C45.7813 43.2078 46.6063 41.8672 47.2156 40.2922C47.8063 38.7641 48.2188 37.0203 48.3313 34.4703C48.4438 31.9109 48.4719 31.0953 48.4719 24.5797C48.4719 18.0641 48.4438 17.2484 48.3313 14.6891C48.2188 12.1391 47.8063 10.3859 47.2156 8.86719C46.625 7.27344 45.8094 5.93281 44.4688 4.60156C43.1375 3.27031 41.7969 2.44531 40.2219 1.83594C38.6938 1.24531 36.95 0.832813 34.4 0.720313C31.8313 0.598438 31.0156 0.570312 24.5 0.570312Z" fill="black"/>
<path d="M24.5 12.2422C17.6938 12.2422 12.1719 17.7641 12.1719 24.5703C12.1719 31.3766 17.6938 36.8984 24.5 36.8984C31.3062 36.8984 36.8281 31.3766 36.8281 24.5703C36.8281 17.7641 31.3062 12.2422 24.5 12.2422ZM24.5 32.5672C20.0844 32.5672 16.5031 28.9859 16.5031 24.5703C16.5031 20.1547 20.0844 16.5734 24.5 16.5734C28.9156 16.5734 32.4969 20.1547 32.4969 24.5703C32.4969 28.9859 28.9156 32.5672 24.5 32.5672Z" fill="black"/>
<path d="M40.1937 11.7551C40.1937 13.3488 38.9 14.6332 37.3156 14.6332C35.7219 14.6332 34.4375 13.3395 34.4375 11.7551C34.4375 10.1613 35.7313 8.87695 37.3156 8.87695C38.9 8.87695 40.1937 10.1707 40.1937 11.7551Z" fill="black"/>
</svg>
