<?xml version="1.0" encoding="utf-8"?>
<!-- Generator: Adobe Illustrator 19.2.1, SVG Export Plug-In . SVG Version: 6.00 Build 0)  -->
<svg version="1.1" id="layer" xmlns="http://www.w3.org/2000/svg" xmlns:xlink="http://www.w3.org/1999/xlink" x="0px" y="0px"
	 viewBox="0 0 652 652" style="enable-background:new 0 0 652 652;" xml:space="preserve">
<style type="text/css">
	.st0{fill:#282828;}
</style>
<g id="Style-Guide">
	<g id="Breakpoint---M---1024" transform="translate(-87.000000, -21.000000)">
		<g id="Nav">
			<g id="Desktop-Nav-Updated" transform="translate(87.000000, 16.000000)">
				<g id="Group-13" transform="translate(0.000000, 5.000000)">
					<path id="Fill-1" class="st0" d="M32,250.8c0-2.4,1.9-4.6,4.2-4.6h55.2c45,0,81.8,38.3,81.8,85c0,47.3-36.8,85.5-81.8,85.5
						H36.2c-2.3,0-4.2-2.2-4.2-4.6V250.8z M88.6,387.1c30.3,0,52.4-23.9,52.4-55.8c0-31.7-22.1-55.6-52.4-55.6H62.1v111.4H88.6z"/>
					<path id="Fill-3" class="st0" d="M196.7,284.4v-5.6c0-1.8,1.9-3.1,4.6-3.1h61.5c2.6,0,4.6,1.3,4.6,3.1v5.6c0,1.7-1.9,3-4.6,3
						h-61.5C198.6,287.4,196.7,286.1,196.7,284.4"/>
					<path id="Fill-5" class="st0" d="M228.2,316.8c-28.6,0-49.1,23.1-49.1,50c0,27.4,20.5,50,49.3,50c15.6,0,27.9-5.7,35.9-13.1
						c2.4-1.9,1.9-4.5,0.2-6.2l-9.9-11.2c-1.7-1.9-3.9-1.4-6.3,0c-4.3,3.1-11.3,6-18.8,6c-14,0-22.4-10.9-23.1-20.7h61.6
						c2.2,0,4.3-1.7,4.6-4c0.2-1.7,0.5-4.8,0.5-6.4C273.2,335.4,253,316.8,228.2,316.8z M208.7,354.9c1.2-9.1,9.1-16.2,18.8-16.2
						c9.1,0,16.9,7.4,17.6,16.2H208.7z"/>
					<path id="Fill-7" class="st0" d="M284.9,323.9c0-2.7,2.1-4.6,4.5-4.6h8.8c2.1,0,3.6,1.2,4.1,2.7l3.3,9.3
						c4-4.6,15-14.4,31.9-14.4c13.6,0,23.1,5.4,31,15.1c4-4.4,16.4-15.1,33.6-15.1c30.5,0,41.7,23.2,41.7,48.8v46.6
						c0,2.4-1.9,4.6-4.5,4.6H420c-2.6,0-4.5-2.2-4.5-4.6v-48.3c0-12.7-6-20.7-17.9-20.7c-13.8,0-20,10.2-20,10.2s0.2,4.9,0.2,9.3
						v49.5c0,2.4-2.1,4.6-4.5,4.6h-17.9c-2.6,0-4.5-2.2-4.5-4.6v-48.3c0-12.7-5.5-20.7-17.6-20.7c-11.9,0-17.6,8.8-20,15.4v53.7
						c0,2.4-2.1,4.6-4.5,4.6h-19.3c-2.4,0-4.5-2.2-4.5-4.6V323.9z"/>
					<path id="Fill-9" class="st0" d="M505.5,316.8c27.6,0,50,22.9,50,49.8c0,27.4-22.4,50.2-50,50.2c-27.6,0-50-22.9-50-50.2
						C455.5,339.6,478,316.8,505.5,316.8 M505.5,391.1c12.9,0,23.4-10.9,23.4-24.5c0-13.3-10.5-24-23.4-24
						c-13.2,0-23.4,10.7-23.4,24C482.1,380.1,492.4,391.1,505.5,391.1"/>
					<path id="Fill-11" class="st0" d="M562.6,403l6.3-12.9c0.9-2.4,3.3-2.9,5.4-1.7c0,0,10.5,5.7,21.2,5.7c4.7,0,7.9-1.9,7.9-6
						c0-4.3-3.3-6.9-15.6-11.9c-17.9-7.1-26.3-16.9-26.3-31.4c0-14.5,10.5-28.1,34.2-28.1c13.7,0,23.8,4,28.7,7.4
						c2.1,1.4,3.3,4,2.1,6.4l-5.8,12.1c-1.2,2.1-3.7,2.4-5.6,1.7c0,0-10.5-5-19.3-5c-5.6,0-7.9,2.4-7.9,5.5c0,4.3,4.2,5.7,12.8,9.3
						c17.9,7.1,31.5,15,31.5,33.6c0,15.7-13.5,29-37,29c-15.4,0-26.1-5-31-8.8C562.6,406.8,561.6,404.9,562.6,403"/>
				</g>
			</g>
		</g>
	</g>
</g>
</svg>
