<svg width="583" height="179" viewBox="0 0 583 179" fill="none" xmlns="http://www.w3.org/2000/svg">
<path d="M442.841 0H404V178.58H582.58V0L541.879 2.61243e-08C543.18 4.00951 543.83 8.36909 543.83 13.0787C543.83 21.7189 541.642 29.237 537.266 35.6329C532.889 41.9167 526.83 46.7417 519.087 50.108C511.457 53.4743 502.761 55.1575 492.999 55.1575H483.236V88.8205H442.841V0Z" fill="white"/>
<path d="M499.058 21.1579C496.814 23.0654 493.56 24.0192 489.296 24.0192H483.236V2.13826H489.296C493.56 2.13826 496.814 3.14815 499.058 5.16794C501.414 7.0755 502.593 9.71244 502.593 13.0787C502.593 16.445 501.414 19.1381 499.058 21.1579Z" fill="white"/>
<path d="M178.58 0H0V178.58H30V71H58.9502L109.445 129.574V71H148.157V178.58H178.58V0Z" fill="white"/>
<path d="M110.379 178.58L68.7124 130.247V178.58H110.379Z" fill="white"/>
<path fill-rule="evenodd" clip-rule="evenodd" d="M380.58 0H202V178.58H380.58V0ZM255.063 139.761C264.601 147.167 277.056 150.87 292.429 150.87C303.314 150.87 312.515 149.243 320.033 145.989C327.551 142.622 333.161 138.246 336.864 132.86C340.567 127.362 342.419 121.415 342.419 115.019C342.419 106.491 340.343 99.6461 336.191 94.4844C332.152 89.2105 327.383 85.3393 321.884 82.8707C316.498 80.402 309.653 77.9895 301.35 75.6331C294.73 73.7256 289.961 72.0424 287.043 70.5837C284.126 69.1249 282.667 67.1052 282.667 64.5243C282.667 62.1679 283.396 60.3165 284.855 58.9699C286.426 57.6234 288.67 56.9502 291.588 56.9502C295.739 56.9502 298.713 58.2406 300.508 60.8214C302.416 63.29 303.37 66.3758 303.37 70.0787H340.399C340.287 59.9798 337.818 51.8446 332.993 45.6731C328.28 39.3893 322.221 34.9009 314.815 32.2079C307.521 29.4026 299.667 28 291.251 28C281.825 28 273.466 29.5148 266.172 32.5445C258.991 35.462 253.38 39.6137 249.341 44.9998C245.413 50.2737 243.45 56.3891 243.45 63.3461C243.45 71.8741 245.469 78.775 249.509 84.0489C253.661 89.3227 258.486 93.2501 263.984 95.8309C269.482 98.2995 276.383 100.768 284.687 103.237C291.307 105.144 296.02 106.827 298.825 108.286C301.743 109.745 303.201 111.765 303.201 114.346C303.201 119.395 299.611 121.92 292.429 121.92C283.789 121.92 279.301 116.814 278.964 106.603H240.42C240.644 121.19 245.525 132.243 255.063 139.761Z" fill="white"/>
</svg>
