<svg width="1201" height="116" viewBox="0 0 1201 116" fill="none" xmlns="http://www.w3.org/2000/svg">
<path d="M491.79 94.5184C492.595 94.5184 493.23 94.7898 493.695 95.3327C494.16 95.8756 494.393 96.5542 494.393 97.3685V102.08H493.07V97.514C493.07 96.3312 492.537 95.7399 491.47 95.7399C490.627 95.7399 489.832 96.2052 489.085 97.1359V102.08H487.762V94.6638H488.925L489.085 95.5945V95.8126H489.114C489.9 94.9498 490.792 94.5184 491.79 94.5184Z" fill="black"/>
<path d="M498.209 95.0709C499.052 94.7026 499.954 94.5184 500.913 94.5184C501.883 94.5184 502.624 94.7995 503.138 95.3618C503.652 95.9241 503.909 96.5978 503.909 97.3831V102.08H502.746L502.586 101.149H502.542C501.844 101.867 500.947 102.225 499.852 102.225C499.193 102.225 498.63 102.027 498.165 101.629C497.709 101.232 497.481 100.689 497.481 100.001C497.481 99.3123 497.763 98.7549 498.325 98.3283C498.897 97.9017 499.731 97.6885 500.826 97.6885H502.586V97.5721C502.586 96.9323 502.426 96.4718 502.106 96.1907C501.795 95.9095 501.253 95.769 500.477 95.769C499.701 95.769 498.974 95.9338 498.296 96.2634H498.209V95.0709ZM502.586 99.9715V98.75H501.001C499.537 98.75 498.805 99.1378 498.805 99.9134C498.805 100.679 499.319 101.062 500.346 101.062C500.773 101.062 501.185 100.96 501.582 100.757C501.98 100.543 502.314 100.282 502.586 99.9715Z" fill="black"/>
<path d="M511.626 94.5184C512.431 94.5184 513.066 94.7898 513.531 95.3327C513.996 95.8756 514.229 96.5542 514.229 97.3685V102.08H512.906V97.514C512.906 96.3312 512.373 95.7399 511.306 95.7399C510.463 95.7399 509.668 96.2052 508.921 97.1359V102.08H507.598V94.6638H508.761L508.921 95.5945V95.8126H508.95C509.736 94.9498 510.627 94.5184 511.626 94.5184Z" fill="black"/>
<path d="M518.51 95.5654C519.217 94.8674 520.041 94.5184 520.982 94.5184C521.922 94.5184 522.737 94.8771 523.425 95.5945H523.468V91.4646H524.792V102.08H523.628L523.468 101.149H523.425C522.737 101.867 521.922 102.225 520.982 102.225C520.041 102.225 519.217 101.876 518.51 101.178C517.812 100.48 517.463 99.545 517.463 98.3719C517.463 97.1989 517.812 96.2634 518.51 95.5654ZM521.171 100.989C522.043 100.989 522.809 100.626 523.468 99.8988V96.845C522.809 96.118 522.043 95.7544 521.171 95.7544C520.453 95.7544 519.877 95.9822 519.44 96.4379C519.004 96.8935 518.786 97.5382 518.786 98.3719C518.786 99.2057 519.004 99.8503 519.44 100.306C519.877 100.762 520.453 100.989 521.171 100.989Z" fill="black"/>
<path d="M528.091 98.3719C528.091 97.2183 528.43 96.2876 529.109 95.5799C529.787 94.8722 530.684 94.5184 531.799 94.5184C532.923 94.5184 533.825 94.8722 534.504 95.5799C535.192 96.2876 535.536 97.2183 535.536 98.3719C535.536 99.5256 535.192 100.456 534.504 101.164C533.825 101.872 532.923 102.225 531.799 102.225C530.684 102.225 529.787 101.872 529.109 101.164C528.43 100.456 528.091 99.5256 528.091 98.3719ZM530.127 100.364C530.611 100.8 531.174 101.019 531.813 101.019C532.453 101.019 533.011 100.8 533.486 100.364C533.97 99.9182 534.213 99.2541 534.213 98.3719C534.213 97.48 533.97 96.816 533.486 96.3797C533.011 95.9435 532.453 95.7253 531.813 95.7253C531.174 95.7253 530.611 95.9435 530.127 96.3797C529.652 96.816 529.414 97.48 529.414 98.3719C529.414 99.2541 529.652 99.9182 530.127 100.364Z" fill="black"/>
<path d="M546.765 95.7253C546.144 95.7253 545.684 95.8223 545.383 96.0162C545.092 96.2004 544.947 96.4379 544.947 96.7287C544.947 97.0098 545.097 97.228 545.398 97.3831C545.698 97.5382 546.062 97.6642 546.488 97.7612C546.925 97.8484 547.356 97.9599 547.783 98.0956C548.209 98.2314 548.573 98.464 548.873 98.7936C549.174 99.1233 549.324 99.5741 549.324 100.146C549.324 100.718 549.077 101.208 548.582 101.615C548.098 102.022 547.371 102.225 546.401 102.225C545.441 102.225 544.564 102.007 543.769 101.571V100.306H543.842C544.627 100.771 545.49 101.004 546.43 101.004C547.506 101.004 548.044 100.66 548.044 99.9715C548.044 99.7485 547.894 99.5692 547.594 99.4335C547.293 99.2881 546.93 99.1669 546.503 99.0699C546.076 98.973 545.65 98.8567 545.223 98.7209C544.797 98.5852 544.433 98.3574 544.133 98.0375C543.832 97.7175 543.682 97.3104 543.682 96.816C543.682 96.1373 543.924 95.5848 544.409 95.1582C544.903 94.7316 545.572 94.5184 546.416 94.5184C547.259 94.5184 548.044 94.6541 548.771 94.9255V96.1325H548.67C548.02 95.8611 547.385 95.7253 546.765 95.7253Z" fill="#9E8B59"/>
<path d="M558.783 101.178C558.085 101.876 557.266 102.225 556.325 102.225C555.385 102.225 554.571 101.867 553.882 101.149H553.839V105.425H552.516V94.6638H553.679L553.839 95.5945H553.882C554.571 94.8771 555.385 94.5184 556.325 94.5184C557.266 94.5184 558.085 94.8674 558.783 95.5654C559.491 96.2634 559.845 97.1989 559.845 98.3719C559.845 99.545 559.491 100.48 558.783 101.178ZM556.136 95.7544C555.264 95.7544 554.498 96.118 553.839 96.845V99.8988C554.498 100.626 555.264 100.989 556.136 100.989C556.854 100.989 557.431 100.762 557.867 100.306C558.303 99.8503 558.521 99.2057 558.521 98.3719C558.521 97.5382 558.303 96.8935 557.867 96.4379C557.431 95.9822 556.854 95.7544 556.136 95.7544Z" fill="#9E8B59"/>
<path d="M563.202 102.08V94.6638H564.525V102.08H563.202ZM564.583 91.6682V93.0933H563.158V91.6682H564.583Z" fill="#9E8B59"/>
<path d="M574.847 98.3719V98.8373H569.234C569.312 99.5159 569.564 100.044 569.99 100.422C570.417 100.8 571.062 100.989 571.924 100.989C572.797 100.989 573.602 100.747 574.338 100.262H574.411V101.542C573.597 101.998 572.637 102.225 571.532 102.225C570.436 102.225 569.554 101.891 568.885 101.222C568.226 100.543 567.896 99.6322 567.896 98.4883C567.896 97.3346 568.192 96.3846 568.783 95.6381C569.375 94.8916 570.238 94.5184 571.372 94.5184C572.506 94.5184 573.369 94.8916 573.96 95.6381C574.552 96.3846 574.847 97.2958 574.847 98.3719ZM569.234 97.7612H573.524C573.485 97.0632 573.248 96.5348 572.811 96.1761C572.385 95.8174 571.905 95.6381 571.372 95.6381C570.839 95.6381 570.359 95.8174 569.932 96.1761C569.506 96.5348 569.273 97.0632 569.234 97.7612Z" fill="#9E8B59"/>
<path d="M583.446 94.6638V95.8998L579.243 100.8V100.844H583.446V102.08H577.6V100.859L581.861 95.958V95.8998H577.731V94.6638H583.446Z" fill="#9E8B59"/>
<path d="M586.849 102.08V94.6638H588.172V102.08H586.849ZM588.231 91.6682V93.0933H586.805V91.6682H588.231Z" fill="#9E8B59"/>
<path d="M592.111 95.0709C592.954 94.7026 593.856 94.5184 594.816 94.5184C595.785 94.5184 596.527 94.7995 597.04 95.3618C597.554 95.9241 597.811 96.5978 597.811 97.3831V102.08H596.648L596.488 101.149H596.444C595.746 101.867 594.85 102.225 593.754 102.225C593.095 102.225 592.533 102.027 592.067 101.629C591.612 101.232 591.384 100.689 591.384 100.001C591.384 99.3123 591.665 98.7549 592.227 98.3283C592.799 97.9017 593.633 97.6885 594.728 97.6885H596.488V97.5721C596.488 96.9323 596.328 96.4718 596.008 96.1907C595.698 95.9095 595.155 95.769 594.379 95.769C593.604 95.769 592.877 95.9338 592.198 96.2634H592.111V95.0709ZM596.488 99.9715V98.75H594.903C593.439 98.75 592.707 99.1378 592.707 99.9134C592.707 100.679 593.221 101.062 594.248 101.062C594.675 101.062 595.087 100.96 595.485 100.757C595.882 100.543 596.216 100.282 596.488 99.9715Z" fill="#9E8B59"/>
<path d="M612.999 101.178C612.301 101.876 611.482 102.225 610.542 102.225C609.601 102.225 608.787 101.867 608.099 101.149H608.055V105.425H606.732V94.6638H607.895L608.055 95.5945H608.099C608.787 94.8771 609.601 94.5184 610.542 94.5184C611.482 94.5184 612.301 94.8674 612.999 95.5654C613.707 96.2634 614.061 97.1989 614.061 98.3719C614.061 99.545 613.707 100.48 612.999 101.178ZM610.353 95.7544C609.48 95.7544 608.714 96.118 608.055 96.845V99.8988C608.714 100.626 609.48 100.989 610.353 100.989C611.07 100.989 611.647 100.762 612.083 100.306C612.52 99.8503 612.738 99.2057 612.738 98.3719C612.738 97.5382 612.52 96.8935 612.083 96.4379C611.647 95.9822 611.07 95.7544 610.353 95.7544Z" fill="black"/>
<path d="M621.824 94.5184C622.629 94.5184 623.264 94.7898 623.729 95.3327C624.194 95.8756 624.427 96.5542 624.427 97.3685V102.08H623.104V97.514C623.104 96.3312 622.571 95.7399 621.504 95.7399C620.661 95.7399 619.866 96.2052 619.119 97.1359V102.08H617.796V91.4646H619.119V95.8126H619.163C619.948 94.9498 620.835 94.5184 621.824 94.5184Z" fill="black"/>
<path d="M628.097 98.3719C628.097 97.2183 628.436 96.2876 629.115 95.5799C629.794 94.8722 630.69 94.5184 631.805 94.5184C632.93 94.5184 633.831 94.8722 634.51 95.5799C635.198 96.2876 635.543 97.2183 635.543 98.3719C635.543 99.5256 635.198 100.456 634.51 101.164C633.831 101.872 632.93 102.225 631.805 102.225C630.69 102.225 629.794 101.872 629.115 101.164C628.436 100.456 628.097 99.5256 628.097 98.3719ZM630.133 100.364C630.618 100.8 631.18 101.019 631.82 101.019C632.46 101.019 633.017 100.8 633.492 100.364C633.977 99.9182 634.219 99.2541 634.219 98.3719C634.219 97.48 633.977 96.816 633.492 96.3797C633.017 95.9435 632.46 95.7253 631.82 95.7253C631.18 95.7253 630.618 95.9435 630.133 96.3797C629.658 96.816 629.42 97.48 629.42 98.3719C629.42 99.2541 629.658 99.9182 630.133 100.364Z" fill="black"/>
<path d="M643.197 95.798H641.089V100.19C641.089 100.597 641.2 100.849 641.423 100.946C641.607 101.023 641.845 101.062 642.136 101.062C642.427 101.062 642.747 100.985 643.096 100.829H643.197V101.906C642.79 102.119 642.354 102.225 641.889 102.225C640.473 102.225 639.765 101.586 639.765 100.306V95.798H638.384V95.7108L641.089 93.0642V94.6638H643.197V95.798Z" fill="black"/>
<path d="M646.306 98.3719C646.306 97.2183 646.645 96.2876 647.324 95.5799C648.003 94.8722 648.899 94.5184 650.014 94.5184C651.139 94.5184 652.04 94.8722 652.719 95.5799C653.407 96.2876 653.752 97.2183 653.752 98.3719C653.752 99.5256 653.407 100.456 652.719 101.164C652.04 101.872 651.139 102.225 650.014 102.225C648.899 102.225 648.003 101.872 647.324 101.164C646.645 100.456 646.306 99.5256 646.306 98.3719ZM648.342 100.364C648.827 100.8 649.389 101.019 650.029 101.019C650.669 101.019 651.226 100.8 651.701 100.364C652.186 99.9182 652.428 99.2541 652.428 98.3719C652.428 97.48 652.186 96.816 651.701 96.3797C651.226 95.9435 650.669 95.7253 650.029 95.7253C649.389 95.7253 648.827 95.9435 648.342 96.3797C647.867 96.816 647.629 97.48 647.629 98.3719C647.629 99.2541 647.867 99.9182 648.342 100.364Z" fill="black"/>
<path d="M663.209 94.6638H664.373V101.76C664.373 102.982 664.077 103.922 663.486 104.581C662.894 105.24 662.036 105.57 660.912 105.57C659.797 105.57 658.779 105.323 657.858 104.828V103.52H657.931C658.755 104.053 659.719 104.32 660.825 104.32C662.308 104.32 663.05 103.529 663.05 101.949V101.004H663.006C662.337 101.721 661.537 102.08 660.607 102.08C659.676 102.08 658.847 101.75 658.12 101.091C657.402 100.422 657.044 99.4916 657.044 98.2992C657.044 97.1068 657.402 96.181 658.12 95.5217C658.847 94.8528 659.676 94.5184 660.607 94.5184C661.537 94.5184 662.337 94.8771 663.006 95.5945H663.05L663.209 94.6638ZM663.05 99.797V96.8014C662.352 96.084 661.624 95.7253 660.868 95.7253C660.122 95.7253 659.516 95.9483 659.051 96.3942C658.595 96.8305 658.367 97.4655 658.367 98.2992C658.367 99.1329 658.595 99.7728 659.051 100.219C659.516 100.655 660.122 100.873 660.868 100.873C661.624 100.873 662.352 100.514 663.05 99.797Z" fill="black"/>
<path d="M672.645 94.5184H672.761V95.7835H672.645C672.073 95.7835 671.54 95.895 671.045 96.118C670.551 96.3409 670.163 96.6512 669.882 97.0486V102.08H668.559V94.6638H669.722L669.882 95.5945V95.8126H669.911C670.609 94.9498 671.52 94.5184 672.645 94.5184Z" fill="black"/>
<path d="M676.204 95.0709C677.047 94.7026 677.949 94.5184 678.908 94.5184C679.878 94.5184 680.62 94.7995 681.133 95.3618C681.647 95.9241 681.904 96.5978 681.904 97.3831V102.08H680.741L680.581 101.149H680.537C679.839 101.867 678.942 102.225 677.847 102.225C677.188 102.225 676.625 102.027 676.16 101.629C675.704 101.232 675.477 100.689 675.477 100.001C675.477 99.3123 675.758 98.7549 676.32 98.3283C676.892 97.9017 677.726 97.6885 678.821 97.6885H680.581V97.5721C680.581 96.9323 680.421 96.4718 680.101 96.1907C679.791 95.9095 679.248 95.769 678.472 95.769C677.697 95.769 676.97 95.9338 676.291 96.2634H676.204V95.0709ZM680.581 99.9715V98.75H678.996C677.532 98.75 676.8 99.1378 676.8 99.9134C676.8 100.679 677.314 101.062 678.341 101.062C678.768 101.062 679.18 100.96 679.577 100.757C679.975 100.543 680.309 100.282 680.581 99.9715Z" fill="black"/>
<path d="M692.297 101.178C691.599 101.876 690.78 102.225 689.839 102.225C688.899 102.225 688.085 101.867 687.396 101.149H687.353V105.425H686.029V94.6638H687.193L687.353 95.5945H687.396C688.085 94.8771 688.899 94.5184 689.839 94.5184C690.78 94.5184 691.599 94.8674 692.297 95.5654C693.005 96.2634 693.358 97.1989 693.358 98.3719C693.358 99.545 693.005 100.48 692.297 101.178ZM689.65 95.7544C688.778 95.7544 688.012 96.118 687.353 96.845V99.8988C688.012 100.626 688.778 100.989 689.65 100.989C690.368 100.989 690.944 100.762 691.381 100.306C691.817 99.8503 692.035 99.2057 692.035 98.3719C692.035 97.5382 691.817 96.8935 691.381 96.4379C690.944 95.9822 690.368 95.7544 689.65 95.7544Z" fill="black"/>
<path d="M701.122 94.5184C701.926 94.5184 702.561 94.7898 703.027 95.3327C703.492 95.8756 703.725 96.5542 703.725 97.3685V102.08H702.401V97.514C702.401 96.3312 701.868 95.7399 700.802 95.7399C699.958 95.7399 699.163 96.2052 698.417 97.1359V102.08H697.094V91.4646H698.417V95.8126H698.461C699.246 94.9498 700.133 94.5184 701.122 94.5184Z" fill="black"/>
<path d="M714.389 94.6638L709.925 105.425H708.587L709.838 102.196L706.769 94.6638H708.194L710.521 100.524H710.579L712.964 94.6638H714.389Z" fill="black"/>
<path d="M659.503 10H644.339V79.7194H714.059V10L698.169 10C698.677 11.5654 698.93 13.2674 698.93 15.1061C698.93 18.4793 698.076 21.4144 696.368 23.9115C694.659 26.3647 692.293 28.2485 689.271 29.5627C686.292 30.877 682.897 31.5341 679.085 31.5341H675.274V44.6765H659.503V10Z" fill="black"/>
<path d="M681.451 18.2603C680.575 19.005 679.304 19.3774 677.64 19.3774H675.274V10.8348H677.64C679.304 10.8348 680.575 11.2291 681.451 12.0176C682.371 12.7624 682.831 13.7918 682.831 15.1061C682.831 16.4203 682.371 17.4717 681.451 18.2603Z" fill="black"/>
<path d="M556.333 10H486.613V79.7194H498.326V37.7192H509.628L529.342 60.587V37.7192H544.455V79.7194H556.333V10Z" fill="black"/>
<path d="M529.706 79.7194L513.439 60.8498V79.7194H529.706Z" fill="black"/>
<path fill-rule="evenodd" clip-rule="evenodd" d="M635.196 10H565.476V79.7194H635.196V10ZM586.193 64.5643C589.916 67.4556 594.779 68.9013 600.781 68.9013C605.03 68.9013 608.622 68.2661 611.558 66.9956C614.493 65.6814 616.683 63.9729 618.129 61.8701C619.574 59.7235 620.297 57.4017 620.297 54.9046C620.297 51.5752 619.487 48.9029 617.866 46.8877C616.289 44.8288 614.427 43.3174 612.28 42.3536C610.178 41.3898 607.505 40.448 604.264 39.528C601.679 38.7833 599.817 38.1261 598.678 37.5566C597.539 36.9871 596.97 36.1986 596.97 35.191C596.97 34.271 597.254 33.5482 597.824 33.0225C598.437 32.4968 599.313 32.234 600.452 32.234C602.073 32.234 603.234 32.7378 603.935 33.7453C604.68 34.7091 605.052 35.9138 605.052 37.3595H619.509C619.465 33.4168 618.501 30.2407 616.617 27.8313C614.778 25.378 612.412 23.6257 609.521 22.5743C606.673 21.4791 603.606 20.9315 600.321 20.9315C596.641 20.9315 593.377 21.5229 590.53 22.7057C587.726 23.8447 585.536 25.4656 583.959 27.5684C582.425 29.6274 581.659 32.0149 581.659 34.731C581.659 38.0604 582.447 40.7546 584.024 42.8136C585.645 44.8726 587.529 46.4059 589.676 47.4134C591.822 48.3772 594.516 49.341 597.758 50.3048C600.343 51.0495 602.183 51.7066 603.278 52.2761C604.417 52.8456 604.986 53.6342 604.986 54.6418C604.986 56.6131 603.585 57.5988 600.781 57.5988C597.408 57.5988 595.655 55.6055 595.524 51.619H580.476C580.563 57.3141 582.469 61.6291 586.193 64.5643Z" fill="black"/>
</svg>
