<svg width="49" height="49" viewBox="0 0 49 49" fill="none" xmlns="http://www.w3.org/2000/svg">
<g clip-path="url(#clip0_153_90)">
<path d="M15.6003 44.0698C33.7091 44.0698 43.6166 29.0632 43.6166 16.0535C43.6166 15.6317 43.6072 15.2004 43.5884 14.7785C45.5157 13.3847 47.179 11.6583 48.5 9.68042C46.705 10.479 44.7993 11.0006 42.8478 11.2273C44.9026 9.99564 46.4411 8.06077 47.1781 5.78136C45.2451 6.92694 43.1312 7.73505 40.9269 8.17105C39.4417 6.59295 37.478 5.54806 35.3394 5.19793C33.2008 4.8478 31.0064 5.21193 29.0955 6.23402C27.1846 7.25611 25.6636 8.87924 24.7677 10.8524C23.8718 12.8257 23.6509 15.0391 24.1391 17.1504C20.225 16.954 16.3959 15.9372 12.9 14.166C9.40405 12.3948 6.31939 9.9087 3.84594 6.86886C2.5888 9.03631 2.20411 11.6011 2.77006 14.042C3.33601 16.4829 4.81013 18.6167 6.89281 20.0098C5.32926 19.9602 3.79995 19.5392 2.43125 18.7817V18.9035C2.42985 21.1781 3.2162 23.383 4.65662 25.1434C6.09704 26.9037 8.10265 28.1109 10.3325 28.5598C8.88411 28.9561 7.36396 29.0138 5.88969 28.7285C6.51891 30.6847 7.74315 32.3956 9.39154 33.6225C11.0399 34.8494 13.0302 35.531 15.0847 35.5723C11.5968 38.312 7.28835 39.7981 2.85313 39.791C2.06657 39.7898 1.2808 39.7416 0.5 39.6467C5.00571 42.5373 10.2471 44.0726 15.6003 44.0698Z" fill="black"/>
</g>
<defs>
<clipPath id="clip0_153_90">
<rect width="48" height="48" fill="white" transform="translate(0.5 0.570312)"/>
</clipPath>
</defs>
</svg>
