<svg width="448" height="180" viewBox="0 0 448 180" fill="none" xmlns="http://www.w3.org/2000/svg">
<path d="M447.782 127.092C443.098 127.639 438.414 128.186 433.163 128.801V74.54C432.027 77.0039 431.391 78.1001 430.999 79.2794C426.203 93.7195 421.372 108.151 416.721 122.638C415.585 126.175 414.147 128.617 409.86 128.44C405.319 128.251 400.801 128.662 399.038 122.947C394.552 108.406 389.933 93.9055 385.358 79.3937C385.045 78.3961 384.655 77.4208 383.73 74.8427C383.318 77.1451 383.065 77.8715 383.078 78.5934C383.34 93.4437 383.51 108.301 383.999 123.144C384.144 127.523 382.352 128.913 378.412 128.281C374.953 127.725 369.687 130.693 369.745 123.351C369.911 102.539 369.839 81.7275 369.77 60.9137C369.759 57.385 371.11 56.0533 374.723 55.9188C390.634 55.3224 390.62 55.235 395.497 70.6234C399.571 83.4829 403.675 96.3313 408.22 110.608C411.697 99.9206 414.683 90.6324 417.743 81.3688C420.012 74.4952 422.449 67.6776 424.664 60.7882C425.796 57.2729 427.856 55.4771 431.662 55.9636C437.034 56.6496 442.412 57.2976 447.788 57.9634V127.097L447.782 127.092Z" fill="black"/>
<path d="M57.6898 179.499C40.1078 164.256 25.8566 146.348 14.9073 125.866C8.40895 113.71 3.07093 101.084 1.2117 87.2762C-0.338408 75.7529 2.325 65.0456 8.61503 55.4256C19.8399 38.2571 43.3357 35.8157 58.1199 50.0405C58.895 50.7848 59.95 51.778 59.9724 52.677C60.1315 59.1942 60.0576 65.7159 58.8278 72.4931C57.8018 71.2915 56.9081 69.9351 55.7231 68.9151C52.092 65.7854 48.7341 62.0638 44.5811 59.8645C29.3287 51.7802 15.0327 59.0552 12.2596 76.0331C10.7543 85.2473 12.4477 94.1185 15.7921 102.752C23.4732 122.588 36.4162 138.979 51.635 153.21C60.0889 161.115 61.5136 169.377 59.9231 179.501H57.6876L57.6898 179.499Z" fill="black"/>
<path d="M217.078 75.8538C217.078 92.1927 216.894 107.386 217.192 122.57C217.279 126.967 216.177 128.915 211.675 128.303C207.967 127.799 202.86 130.493 202.997 122.824C203.36 102.4 203.207 81.9629 203.046 61.5325C203.015 57.5509 204.124 56.3156 208.299 55.8089C218.596 54.5602 225.093 57.8782 229.935 67.5251C236.806 81.2097 245.271 94.0983 253.904 108.769C254.063 105.72 254.231 104.223 254.202 102.73C253.931 89.0003 253.785 75.2641 253.243 61.546C253.062 56.9702 254.737 55.4502 259.034 55.9569C260.503 56.1295 262.011 56.0354 263.498 55.9771C266.565 55.8583 267.835 57.2841 267.828 60.3398C267.779 81.5146 267.765 102.687 267.837 123.862C267.848 127.274 266.365 128.619 263.102 128.346C262.732 128.314 262.342 128.254 261.986 128.323C251.494 130.408 245.41 125.922 240.645 116.49C233.746 102.833 225.341 89.9306 217.075 75.8515L217.078 75.8538Z" fill="black"/>
<path d="M177.252 122.55C170.91 104.546 164.589 86.5364 158.165 68.5631C153.573 55.7237 153.508 55.8829 140.025 55.8964C136.199 55.9009 134.375 57.2796 133.161 60.8039C127.364 77.6226 121.343 94.3629 115.438 111.144C113.552 116.499 111.78 121.896 109.945 127.301C123.265 130.807 126.219 129.478 129.136 117.593C130.493 112.065 132.922 109.509 138.667 110.435C140.117 110.668 141.638 110.471 143.125 110.471C152.378 110.471 158.44 114.9 161.312 123.759C161.482 124.286 161.417 125.043 161.764 125.335C163.048 126.418 164.392 128.059 165.839 128.2C169.86 128.592 173.946 128.337 178.896 128.337C178.146 125.678 177.79 124.082 177.252 122.55ZM149.092 96.8043C144.881 97.181 140.614 96.9523 135.466 96.9523C138.468 87.404 141.116 78.9812 143.763 70.5584C144.133 70.5113 144.505 70.4665 144.874 70.4216C147.379 78.1921 149.986 85.9333 152.217 93.78C152.417 94.4884 150.275 96.6989 149.092 96.8043Z" fill="black"/>
<path d="M300.519 91.6816C300.519 81.6648 300.636 71.648 300.465 61.6356C300.391 57.2662 302.123 55.7708 306.46 55.8807C316.121 56.125 325.796 56.069 335.462 55.9255C339.059 55.8717 341.297 56.7079 340.945 60.8241C340.627 64.5434 341.855 69.1796 335.679 69.22C330.847 69.2514 326.009 69.4173 321.181 69.2491C317.568 69.1213 316.186 70.5853 316.188 74.1454C316.193 88.9375 313.431 86.6171 328.439 86.8323C329.74 86.8503 331.042 86.8323 332.343 86.8346C339.258 86.8525 339.402 87.2314 339.585 93.9728C339.706 98.4342 337.677 99.9564 333.627 99.9609C329.353 99.9654 325.072 100.219 320.805 100.08C317.389 99.9699 316.181 101.467 316.195 104.707C316.222 110.639 315.852 116.58 316.029 122.505C316.155 126.662 315.073 128.525 310.416 128.406C300.524 128.153 300.519 128.39 300.519 118.389C300.519 109.487 300.519 100.584 300.519 91.6793V91.6816Z" fill="black"/>
<path d="M54.388 101.21C83.018 56.2932 83.3988 39.5641 56.5833 0.499023C58.6687 2.34411 60.8483 4.09503 62.824 6.04997C75.7356 18.8333 86.499 32.8833 88.2619 51.778C89.6776 66.9579 84.2074 80.3017 74.0533 90.879C69.1924 95.9412 61.0454 97.8647 54.388 101.21Z" fill="black"/>
</svg>
