<svg width="675" height="264" viewBox="0 0 675 264" fill="none" xmlns="http://www.w3.org/2000/svg">
<path d="M268.838 185.743L229.605 77.6338C229.412 77.0973 228.903 76.743 228.336 76.743H205.39C204.823 76.743 204.314 77.0973 204.121 77.6338L164.888 185.743C164.568 186.62 165.219 187.551 166.156 187.551H188.846C189.447 187.551 189.973 187.157 190.142 186.583L197.455 161.705C197.624 161.131 198.154 160.737 198.751 160.737H235.016C235.596 160.737 236.109 161.104 236.294 161.654L244.741 186.634C244.927 187.184 245.44 187.551 246.02 187.551H267.57C268.507 187.551 269.158 186.62 268.838 185.743ZM227.56 138.312H206.193C205.282 138.312 204.631 137.428 204.904 136.557L215.578 102.657C215.972 101.398 217.754 101.398 218.152 102.657L228.846 136.557C229.122 137.428 228.471 138.312 227.56 138.312Z" fill="url(#paint0_radial_195_144)"/>
<path d="M306.159 186.202V78.0926C306.159 77.3469 306.762 76.743 307.508 76.743H332.212C332.681 76.743 333.119 76.9893 333.362 77.3874L379.353 152.696C380.064 153.86 381.852 153.357 381.852 151.991V78.0893C381.852 77.3436 382.456 76.7396 383.202 76.7396H400.609C401.354 76.7396 401.958 77.3436 401.958 78.0893V186.198C401.958 186.944 401.354 187.548 400.609 187.548H375.122C374.65 187.548 374.212 187.302 373.965 186.897L328.42 111.342C327.712 110.164 325.9 110.677 325.914 112.05L326.639 186.185C326.646 186.934 326.038 187.548 325.29 187.548H307.501C306.756 187.548 306.152 186.944 306.152 186.198L306.159 186.202Z" fill="url(#paint1_radial_195_144)"/>
<path d="M452.425 186.202V78.0926C452.425 77.3469 453.029 76.743 453.775 76.743H512.186C512.932 76.743 513.536 77.3469 513.536 78.0926V96.6878C513.536 97.4335 512.932 98.0375 512.186 98.0375H477.436C476.687 98.0375 476.083 98.6448 476.087 99.3939L476.191 122.48C476.195 123.226 476.802 123.826 477.544 123.823L512.18 123.722C512.925 123.722 513.532 124.326 513.532 125.071V143.292C513.532 144.038 512.928 144.642 512.183 144.642H478.31C477.568 144.642 476.967 145.239 476.961 145.981L476.65 186.212C476.643 186.954 476.043 187.551 475.301 187.551H453.775C453.029 187.551 452.425 186.947 452.425 186.202Z" fill="url(#paint2_radial_195_144)"/>
<path d="M557.812 186.202V78.0926C557.812 77.3469 558.416 76.743 559.162 76.743H587.222C587.806 76.743 588.322 77.1175 588.504 77.6742L613.748 154.818C614.149 156.047 615.88 156.063 616.305 154.842L643.262 77.6472C643.451 77.104 643.964 76.743 644.537 76.743H672.433C673.171 76.743 673.775 77.3368 673.782 78.0758L675 186.185C675.01 186.937 674.403 187.551 673.65 187.551H652.947C652.192 187.551 651.585 186.934 651.598 186.178L652.823 113.957C652.85 112.408 650.674 112.044 650.191 113.515L626.246 186.62C626.064 187.173 625.548 187.548 624.965 187.548H605.773C605.189 187.548 604.673 187.173 604.491 186.617L580.84 114.267C580.364 112.806 578.208 113.15 578.208 114.686V186.198C578.208 186.944 577.604 187.548 576.859 187.548H559.165C558.42 187.548 557.816 186.944 557.816 186.198L557.812 186.202Z" fill="url(#paint3_radial_195_144)"/>
<path d="M90.24 237.817V262.647C90.24 263.784 88.921 264.415 88.0371 263.693C76.8541 254.546 26.0834 210.442 5.49518 148.063C-17.6333 77.988 36.4231 29.3018 89.7306 71.6378C90.0545 71.8942 90.24 72.2857 90.24 72.6973V98.5571C90.24 99.7347 88.84 100.345 87.973 99.5491C79.2324 91.4814 47.3194 64.6735 29.413 85.3775C-18.4598 140.738 82.0863 230.107 89.7745 236.798C90.0679 237.054 90.2366 237.425 90.2366 237.813L90.24 237.817Z" fill="url(#paint4_radial_195_144)"/>
<path d="M79.3808 143.049C79.3808 143.049 146.152 90.837 90.5875 2.08225C89.7306 0.715707 91.559 -0.73182 92.6891 0.418779C105.836 13.7873 130 39.1444 131.052 79.7325C131.052 79.7797 130.732 87.041 130.725 87.0882C129.841 93.5836 127.945 120.199 105.218 136.864L79.3808 143.049Z" fill="#130C0E"/>
<defs>
<radialGradient id="paint0_radial_195_144" cx="0" cy="0" r="1" gradientUnits="userSpaceOnUse" gradientTransform="translate(337.5 132.001) scale(348.468 128.085)">
<stop offset="0.57" stop-color="#130C0E"/>
<stop offset="0.8" stop-color="#130C0E"/>
<stop offset="1" stop-color="#130C0E"/>
</radialGradient>
<radialGradient id="paint1_radial_195_144" cx="0" cy="0" r="1" gradientUnits="userSpaceOnUse" gradientTransform="translate(337.548 132.009) scale(364.833 123.398)">
<stop offset="0.57" stop-color="#130C0E"/>
<stop offset="0.8" stop-color="#130C0E"/>
<stop offset="1" stop-color="#130C0E"/>
</radialGradient>
<radialGradient id="paint2_radial_195_144" cx="0" cy="0" r="1" gradientUnits="userSpaceOnUse" gradientTransform="translate(337.519 132.001) scale(494.093 106.597)">
<stop offset="0.57" stop-color="#130C0E"/>
<stop offset="0.8" stop-color="#130C0E"/>
<stop offset="1" stop-color="#130C0E"/>
</radialGradient>
<radialGradient id="paint3_radial_195_144" cx="0" cy="0" r="1" gradientUnits="userSpaceOnUse" gradientTransform="translate(337.5 132.001) scale(328.406 135.867)">
<stop offset="0.57" stop-color="#130C0E"/>
<stop offset="0.8" stop-color="#130C0E"/>
<stop offset="1" stop-color="#130C0E"/>
</radialGradient>
<radialGradient id="paint4_radial_195_144" cx="0" cy="0" r="1" gradientUnits="userSpaceOnUse" gradientTransform="translate(337.499 131.998) scale(599.881 101.737)">
<stop offset="0.57" stop-color="#130C0E"/>
<stop offset="0.8" stop-color="#130C0E"/>
<stop offset="1" stop-color="#130C0E"/>
</radialGradient>
</defs>
</svg>
