<svg width="405" height="162" viewBox="0 0 405 162" fill="none" xmlns="http://www.w3.org/2000/svg">
<path fill-rule="evenodd" clip-rule="evenodd" d="M216.924 95.3227L210.757 66.5595C210.645 65.9823 210.501 65.4583 210.286 64.9651C210.065 64.4631 209.764 63.9639 209.259 63.5595C208.52 62.9695 207.616 62.7415 206.752 62.7455H204.941C204.422 62.7463 203.909 62.8115 203.4 62.9987C202.896 63.1827 202.392 63.5127 202.015 63.9847L202.011 63.9887C201.494 64.6351 201.157 65.3963 200.919 66.2315L196.722 80.1955L195.9 83.3175L195.111 80.3787L190.975 66.2443C190.843 65.7503 190.695 65.2991 190.5 64.8799C190.295 64.4451 190.045 64.0267 189.647 63.6515C189.231 63.2635 188.758 63.0455 188.3 62.9175C187.839 62.7903 187.376 62.7463 186.891 62.7455H185.251C184.398 62.7403 183.533 62.9863 182.807 63.4715C182.256 63.8367 181.873 64.3539 181.612 64.8831C181.356 65.4051 181.196 65.9595 181.077 66.5595L174.908 95.3227C174.863 95.5107 174.828 95.7171 174.827 95.9699C174.826 96.2251 174.865 96.5331 174.996 96.8503C175.092 97.0875 175.241 97.3215 175.421 97.5083C175.693 97.7935 176.011 97.9595 176.279 98.0435C176.55 98.1295 176.782 98.1487 176.989 98.1507H180.101C180.312 98.1487 180.532 98.1355 180.804 98.0655C181.07 97.9927 181.423 97.8615 181.776 97.4955L181.781 97.4903C182.137 97.0935 182.256 96.7803 182.385 96.4631L182.441 96.3139L186.095 77.6679L186.387 76.0763L186.879 77.8367L191.351 93.2751L191.353 93.2823C191.577 94.0295 191.842 94.6915 192.203 95.2847L192.206 95.2887C192.538 95.8339 193.058 96.2339 193.566 96.4383C194.08 96.6491 194.587 96.7131 195.096 96.7151H196.568C197.106 96.7143 197.634 96.6483 198.158 96.4523C198.677 96.2599 199.199 95.9111 199.579 95.4087C200.037 94.8127 200.382 94.1255 200.595 93.3911L200.598 93.3811L205.183 77.0507L205.41 76.2503L205.625 77.3727L209.336 96.3191L209.395 96.4731C209.523 96.7851 209.64 97.0875 209.984 97.4795L209.997 97.4935L210.011 97.5063C210.356 97.8587 210.706 97.9927 210.971 98.0655C211.244 98.1355 211.463 98.1487 211.675 98.1507H214.843C215.027 98.1495 215.23 98.1335 215.465 98.0707C215.639 98.0227 215.833 97.9467 216.029 97.8227C216.325 97.6403 216.617 97.3243 216.784 96.9683C216.955 96.6131 217.006 96.2559 217.005 95.9711C217.004 95.7171 216.969 95.5107 216.924 95.3227Z" fill="black"/>
<path fill-rule="evenodd" clip-rule="evenodd" d="M261.243 63.3447C260.959 63.0695 260.645 62.9203 260.381 62.8423C260.115 62.7643 259.886 62.7463 259.679 62.7455H256.736C256.499 62.7475 256.252 62.7623 255.946 62.8503C255.793 62.8963 255.624 62.9615 255.439 63.0735C255.257 63.1843 255.056 63.3467 254.883 63.5747C254.635 63.9087 254.513 64.1959 254.397 64.4919L254.386 64.5199L254.377 64.5479C253.733 66.4275 253.091 68.3239 252.449 70.2407C251.804 72.1603 251.218 73.9407 250.688 75.5831C250.158 77.2207 249.714 78.6091 249.355 79.7511C249.177 80.3131 249.031 80.7667 248.918 81.1055C248.807 81.4399 248.721 81.6779 248.699 81.7287L248.69 81.7519L248.682 81.7727C248.613 81.9559 248.554 82.1439 248.467 82.4219C248.383 82.6959 248.279 83.0423 248.155 83.4675C247.91 84.2975 247.63 85.2379 247.311 86.2891C247.233 86.5451 247.157 86.8051 247.079 87.0615C246.802 86.0699 246.547 85.1347 246.321 84.2675C246.196 83.7891 246.086 83.3871 245.992 83.0543C245.895 82.7191 245.817 82.4591 245.736 82.2299L245.741 82.2439C245.454 81.4119 245.062 80.1715 244.577 78.5511C244.083 76.9067 243.552 75.1911 242.983 73.4063C242.418 71.6371 241.882 69.9363 241.374 68.3059C240.865 66.6743 240.479 65.4223 240.22 64.5579L240.2 64.4899L240.173 64.4219C240.045 64.1107 239.929 63.8075 239.584 63.4167L239.572 63.4027L239.558 63.3887C239.154 62.9863 238.799 62.8883 238.538 62.8195C238.269 62.7575 238.053 62.7463 237.838 62.7455H234.725C234.542 62.7463 234.339 62.7623 234.105 62.8255C233.929 62.8723 233.737 62.9483 233.54 63.0735C233.243 63.2555 232.951 63.5715 232.785 63.9275C232.613 64.2827 232.562 64.6399 232.563 64.9251C232.565 65.2339 232.615 65.4791 232.675 65.6951L232.682 65.7191L241.743 94.5675C241.907 95.0823 242.089 95.5407 242.351 95.9779C242.615 96.4051 242.972 96.8591 243.587 97.1551C243.72 97.2183 243.862 97.2463 244 97.2931L243.049 100.039L243.039 100.076C242.809 100.84 242.556 101.404 242.342 101.741C242.092 102.137 241.857 102.384 241.672 102.524C241.477 102.669 241.28 102.759 241.02 102.814C240.656 102.887 240.217 102.931 239.705 102.931C239.325 102.931 238.981 102.905 238.676 102.859C238.382 102.816 237.813 102.695 237.048 102.502C236.816 102.43 236.569 102.375 236.26 102.373C236.073 102.373 235.863 102.396 235.64 102.462C235.37 102.543 235.127 102.685 234.941 102.843C234.657 103.085 234.492 103.343 234.376 103.567C234.262 103.794 234.193 103.999 234.139 104.196L234.136 104.209L233.569 106.427C233.514 106.637 233.477 106.872 233.477 107.128C233.476 107.425 233.531 107.754 233.653 108.058C233.834 108.52 234.154 108.883 234.464 109.11C234.761 109.33 235.051 109.452 235.331 109.542C235.343 109.545 235.351 109.55 235.363 109.554C235.369 109.556 235.376 109.559 235.383 109.561C236.407 109.903 237.376 110.122 238.306 110.194C239.107 110.256 239.794 110.289 240.384 110.289C241.527 110.289 242.607 110.138 243.612 109.813C244.617 109.488 245.544 108.985 246.349 108.312C247.189 107.608 247.893 106.694 248.507 105.611C249.121 104.526 249.646 103.263 250.111 101.816L261.776 65.7263L261.786 65.6931C261.845 65.4831 261.894 65.2411 261.895 64.9411C261.896 64.6679 261.848 64.3379 261.703 64.0079C261.595 63.7607 261.432 63.5267 261.243 63.3447Z" fill="black"/>
<path fill-rule="evenodd" clip-rule="evenodd" d="M318.113 64.0447C318.016 63.8075 317.867 63.5735 317.688 63.3867C317.415 63.1015 317.097 62.9355 316.829 62.8515C316.557 62.7655 316.326 62.7463 316.118 62.7455H313.006C312.797 62.7463 312.576 62.7595 312.304 62.8295C312.039 62.9023 311.686 63.0335 311.333 63.3995L311.327 63.4047C310.97 63.8015 310.852 64.1147 310.723 64.4319L310.667 64.5807L307.013 83.2271L306.721 84.8187L306.229 83.0611L301.755 67.6199L301.754 67.6127C301.531 66.8655 301.267 66.2035 300.904 65.6103L300.901 65.6051C300.569 65.0599 300.051 64.6611 299.542 64.4567C299.029 64.2459 298.521 64.1819 298.012 64.1799H296.541C296.001 64.1807 295.474 64.2467 294.95 64.4427C294.43 64.6347 293.909 64.9839 293.528 65.4863C293.071 66.0815 292.725 66.7695 292.514 67.5039L292.511 67.5099L287.925 83.8455L287.927 83.8395L287.699 84.6447L287.482 83.5223L283.772 64.5759L283.713 64.4219C283.583 64.1099 283.469 63.8075 283.123 63.4155L283.11 63.4015L283.098 63.3887C282.751 63.0363 282.401 62.9023 282.136 62.8295C281.865 62.7595 281.643 62.7463 281.434 62.7455H278.264C278.081 62.7455 277.878 62.7615 277.644 62.8243C277.468 62.8723 277.275 62.9483 277.078 63.0723C276.783 63.2543 276.491 63.5707 276.323 63.9267C276.153 64.2827 276.101 64.6387 276.101 64.9239C276.103 65.1791 276.141 65.3843 276.187 65.5711L282.351 94.3355C282.465 94.9127 282.607 95.4367 282.822 95.9311C283.043 96.4319 283.344 96.9311 283.849 97.3355C284.589 97.9255 285.493 98.1535 286.356 98.1495H288.167C288.687 98.1487 289.199 98.0835 289.707 97.8963C290.212 97.7123 290.715 97.3823 291.094 96.9103L291.101 96.9023L291.097 96.9071C291.614 96.2599 291.951 95.4987 292.189 94.6635L296.387 80.6995L297.207 77.5775L297.997 80.5163L302.133 94.6507C302.263 95.1447 302.413 95.5959 302.608 96.0151C302.813 96.4511 303.062 96.8683 303.461 97.2443C303.877 97.6315 304.351 97.8503 304.808 97.9775C305.269 98.1047 305.731 98.1487 306.217 98.1495H307.858C308.71 98.1547 309.574 97.9083 310.301 97.4235C310.853 97.0583 311.235 96.5411 311.496 96.0119C311.752 95.4899 311.912 94.9355 312.031 94.3355L318.2 65.5723C318.245 65.3855 318.28 65.1799 318.281 64.9251C318.281 64.6699 318.241 64.3619 318.113 64.0447Z" fill="black"/>
<path fill-rule="evenodd" clip-rule="evenodd" d="M347.491 69.1043C348.934 69.1031 350.037 69.3551 350.83 69.7603C351.704 70.2075 352.307 70.7487 352.749 71.4087C353.232 72.1351 353.589 72.9895 353.811 74.0195C353.926 74.5567 354.012 75.1099 354.072 75.6779H340.87C340.972 75.1239 341.101 74.5907 341.264 74.0847C341.601 73.0355 342.057 72.1671 342.633 71.4339C343.195 70.7175 343.868 70.1575 344.701 69.7255C345.481 69.3231 346.386 69.1051 347.491 69.1043ZM360.765 71.0307C360.21 69.1791 359.345 67.5239 358.179 66.1295C356.99 64.7059 355.472 63.6107 353.709 62.8635C351.903 62.0963 349.834 61.7451 347.519 61.7451C345.427 61.7439 343.452 62.1463 341.655 62.9715C339.853 63.7947 338.272 65.0291 336.965 66.6163C335.642 68.2211 334.639 70.1727 333.939 72.4163C333.228 74.6947 332.891 77.2515 332.891 80.0743C332.891 83.0403 333.199 85.6579 333.857 87.9407C334.514 90.2191 335.535 92.1719 336.948 93.6991C338.31 95.1767 339.953 96.2971 341.809 97.0271C343.666 97.7583 345.729 98.1067 347.972 98.1055C349.52 98.1055 351.101 97.9415 352.708 97.6183C354.39 97.2803 355.984 96.6323 357.457 95.6947C357.749 95.5367 358.059 95.3067 358.316 94.9447C358.607 94.5447 358.767 93.9923 358.759 93.5231C358.756 93.0059 358.618 92.5971 358.462 92.2559L358.456 92.2419L357.432 90.1263L357.437 90.1383C357.282 89.8131 357.038 89.4539 356.659 89.1771C356.287 88.8967 355.797 88.7527 355.383 88.7587C354.879 88.7627 354.487 88.9139 354.158 89.0851L354.131 89.0991L354.103 89.1151C353.432 89.5011 352.552 89.8563 351.467 90.1451C350.414 90.4275 349.339 90.5683 348.229 90.5683C347.067 90.5683 346.013 90.3955 345.044 90.0631C344.135 89.7483 343.385 89.2651 342.719 88.5699C342.083 87.9035 341.537 86.9863 341.113 85.7391C340.847 84.9611 340.665 84.0083 340.564 82.9171H356.063C357.391 82.9223 358.677 82.5631 359.734 81.7847C360.456 81.2595 360.941 80.4743 361.208 79.6563C361.48 78.8299 361.579 77.9427 361.581 76.9655C361.581 74.8519 361.315 72.8651 360.765 71.0307Z" fill="black"/>
<path fill-rule="evenodd" clip-rule="evenodd" d="M393.307 91.2635C392.726 91.3195 392.218 91.3467 391.793 91.3455C390.553 91.3455 389.466 91.1695 388.513 90.8383C387.638 90.5323 386.942 90.0511 386.319 89.3219C385.712 88.6079 385.186 87.6015 384.788 86.2363C384.403 84.9207 384.183 83.1763 384.185 81.0315C384.185 78.9351 384.41 77.1767 384.817 75.7651C385.235 74.3135 385.799 73.1863 386.472 72.3343C387.166 71.4587 387.928 70.8575 388.822 70.4527C389.739 70.0403 390.769 69.8223 391.964 69.8215C392.744 69.8215 393.67 69.8855 394.731 70.0175C395.407 70.1023 396.239 70.2927 397.196 70.5887V90.5803C397.079 90.6135 396.973 90.6483 396.849 90.6795C396.277 90.8263 395.697 90.9455 395.108 91.0367C394.497 91.1315 393.897 91.2075 393.307 91.2635ZM404.676 52.4515C404.584 52.1235 404.408 51.6951 404.004 51.3259L404 51.3231C403.688 51.0463 403.364 50.9099 403.088 50.8359C402.808 50.7619 402.564 50.7431 402.328 50.7419H399.705C399.464 50.7431 399.219 50.7591 398.939 50.8259C398.663 50.8971 398.329 51.0139 397.977 51.3219L397.973 51.3259C397.566 51.6963 397.391 52.1263 397.303 52.4543C397.216 52.7915 397.198 53.0727 397.196 53.3455V62.9495C396.536 62.8055 395.88 62.6943 395.228 62.6223C393.916 62.4771 392.739 62.4031 391.681 62.4031C389.131 62.4023 386.827 62.9055 384.841 63.9779C382.931 65.0091 381.308 66.4183 380.04 68.1711C378.782 69.9043 377.864 71.9151 377.283 74.1495C376.713 76.3483 376.43 78.6479 376.43 81.0315C376.431 83.6263 376.676 85.9879 377.19 88.1195C377.709 90.2823 378.563 92.1987 379.769 93.7995C380.985 95.4207 382.58 96.6711 384.451 97.5115C386.361 98.3695 388.56 98.7639 391.031 98.7639C392.806 98.7639 394.727 98.6275 396.797 98.3615C398.963 98.0835 401.08 97.4723 403.128 96.5399L403.132 96.5411C403.136 96.5399 403.14 96.5371 403.144 96.5351C403.152 96.5299 403.164 96.5259 403.176 96.5211C403.624 96.3259 404.092 95.9531 404.38 95.4527C404.68 94.9387 404.784 94.3743 404.78 93.8895V53.3455C404.78 53.0715 404.76 52.7883 404.676 52.4515Z" fill="black"/>
<path fill-rule="evenodd" clip-rule="evenodd" d="M130.529 109.943C130.53 110.917 130.359 112.082 130.008 113.297C129.489 115.12 128.566 117.049 127.432 118.672C126.304 120.303 124.959 121.614 123.756 122.34L76.3203 151.283C75.5235 151.771 74.4831 152.197 73.3123 152.483C72.1427 152.772 70.8459 152.926 69.5491 152.926C68.2515 152.926 66.9547 152.772 65.7851 152.483C64.6143 152.197 63.5751 151.771 62.7771 151.283L15.3406 122.34C14.5408 121.854 13.6729 121.115 12.8523 120.186C11.6181 118.798 10.4993 116.99 9.73551 115.14C8.96411 113.293 8.56183 111.406 8.56847 109.943V52.0551C8.56659 51.0811 8.73792 49.9167 9.08904 48.7023C9.60868 46.8779 10.5315 44.9503 11.6654 43.3259C12.7936 41.6963 14.1386 40.3839 15.3406 39.6597L62.7771 10.7154C63.5751 10.2273 64.6143 9.80214 65.7851 9.51506C66.9547 9.22598 68.2515 9.07294 69.5491 9.07394C70.8459 9.07294 72.1427 9.22598 73.3123 9.51506C74.4831 9.80214 75.5235 10.2273 76.3203 10.7154L123.757 39.6597C124.555 40.1449 125.425 40.8839 126.244 41.8123C127.479 43.2007 128.598 45.0083 129.361 46.8587C130.133 48.7063 130.535 50.5939 130.529 52.0551V109.943ZM137.565 46.2787C136.753 43.4619 135.451 40.7679 133.792 38.3804C132.127 35.9987 130.111 33.9081 127.705 32.4317L80.2691 3.48834C78.6611 2.50905 76.9139 1.83386 75.1051 1.38673C73.2955 0.941601 71.4223 0.727539 69.5491 0.727539C67.6751 0.727539 65.8019 0.941601 63.9923 1.38673C62.1835 1.83386 60.4355 2.50905 58.8283 3.48834L11.3919 32.4317C9.78568 33.4139 8.35931 34.6753 7.08815 36.1077C5.18663 38.2593 3.62967 40.7979 2.5024 43.5099C1.38269 46.2247 0.6785 49.1143 0.671875 52.0551V109.943C0.673768 111.905 0.993683 113.841 1.53224 115.72C2.34433 118.536 3.64576 121.23 5.30496 123.618C6.96984 126.001 8.98588 128.09 11.3919 129.567L58.8283 158.511C60.4355 159.489 62.1835 160.166 63.9923 160.612C65.8019 161.057 67.6751 161.271 69.5491 161.272C71.4223 161.271 73.2955 161.057 75.1051 160.612C76.9139 160.166 78.6611 159.489 80.2691 158.511L127.705 129.567C129.311 128.586 130.738 127.323 132.009 125.891C133.911 123.74 135.468 121.201 136.595 118.49C137.715 115.775 138.419 112.884 138.425 109.943V52.0551C138.425 50.0947 138.104 48.1571 137.565 46.2787Z" fill="black"/>
<path fill-rule="evenodd" clip-rule="evenodd" d="M88.3435 124.67C88.1115 124.783 87.8847 124.842 87.5967 124.843C87.3083 124.842 87.0811 124.783 86.8499 124.67C86.5091 124.505 86.1583 124.182 85.9015 123.745C85.6507 123.325 85.5203 122.826 85.5147 122.394C85.5323 122.312 85.5787 122.14 85.6659 121.916C85.8675 121.375 86.2803 120.568 86.7847 119.744C87.0383 119.326 87.3167 118.905 87.5995 118.488C88.2263 119.41 88.8207 120.383 89.2059 121.179C89.4111 121.598 89.5551 121.964 89.6271 122.2C89.6563 122.296 89.6723 122.361 89.6799 122.401C89.6751 122.978 89.4167 123.68 89.0071 124.143C88.8007 124.382 88.5715 124.558 88.3435 124.67ZM69.9515 84.9399C69.8519 84.8227 69.7563 84.7267 69.6483 84.6247L69.6351 84.6087C69.5451 84.5215 69.0967 84.0335 68.7491 83.4215C68.5751 83.1171 68.4235 82.7863 68.3263 82.4719C68.2279 82.1551 68.1803 81.8607 68.1795 81.5759C68.1795 81.2687 68.2419 80.9287 68.3755 80.5535C68.5695 79.9955 68.9395 79.3911 69.2603 78.9779C69.4195 78.7711 69.5615 78.6091 69.6495 78.5159L69.7347 78.4267L69.7383 78.4219C69.8207 78.3419 69.9095 78.2487 69.9931 78.1539C70.0751 78.2487 70.1635 78.3419 70.2467 78.4219L70.3251 78.5039C70.5079 78.6951 70.9535 79.2231 71.2819 79.8311C71.4487 80.1355 71.5867 80.4543 71.6747 80.7527C71.7639 81.0507 71.8047 81.3227 71.8047 81.5759C71.8047 81.8987 71.7419 82.2379 71.6143 82.6031C71.4287 83.1463 71.0787 83.7195 70.7767 84.1095C70.6263 84.3055 70.4935 84.4555 70.4131 84.5415L70.3375 84.6195C70.2287 84.7227 70.1331 84.8227 70.0335 84.9399L69.9931 84.9879L69.9515 84.9399ZM53.1351 124.67C52.9031 124.783 52.6767 124.842 52.3883 124.843C52.1003 124.842 51.8731 124.783 51.6415 124.67C51.3007 124.505 50.9495 124.182 50.6931 123.745C50.4431 123.325 50.3115 122.826 50.3059 122.394C50.3247 122.312 50.3711 122.14 50.4575 121.916C50.6599 121.375 51.0715 120.568 51.5759 119.744C51.8299 119.326 52.1079 118.905 52.3911 118.488C53.0175 119.41 53.6119 120.383 53.9983 121.179C54.2027 121.598 54.3475 121.964 54.4183 122.2C54.4487 122.296 54.4639 122.361 54.4715 122.401C54.4675 122.978 54.2091 123.68 53.7995 124.143C53.5923 124.382 53.3631 124.558 53.1351 124.67ZM51.6415 37.2541C51.8731 37.142 52.1003 37.083 52.3883 37.081C52.6767 37.083 52.9031 37.142 53.1351 37.2541C53.4755 37.4201 53.8267 37.7432 54.0835 38.1793C54.3331 38.6005 54.4647 39.0996 54.4703 39.5317C54.4515 39.6127 54.4059 39.7858 54.3191 40.0079C54.1163 40.55 53.7047 41.3571 53.2003 42.1815C52.9467 42.5987 52.6683 43.0195 52.3863 43.4367C51.7587 42.5155 51.1643 41.5411 50.7791 40.7451C50.5739 40.3269 50.4291 39.9598 50.3579 39.7248C50.3287 39.6297 50.3135 39.5647 50.3051 39.5237C50.3095 38.9465 50.5679 38.2443 50.9771 37.7822C51.1831 37.5421 51.4131 37.3671 51.6415 37.2541ZM86.8499 37.2541C87.0811 37.142 87.3083 37.083 87.5967 37.081C87.8847 37.083 88.1115 37.142 88.3435 37.2541C88.6843 37.4201 89.0355 37.7432 89.2919 38.1793C89.5419 38.6005 89.6735 39.0996 89.6783 39.5307C89.6603 39.6127 89.6139 39.7858 89.5275 40.0079C89.3251 40.55 88.9135 41.3571 88.4087 42.1815C88.1551 42.5987 87.8771 43.0195 87.5939 43.4367C86.9675 42.5155 86.3731 41.5411 85.9867 40.7451C85.7823 40.3269 85.6375 39.9598 85.5667 39.7248C85.5363 39.6297 85.5211 39.5647 85.5127 39.5237C85.5175 38.9465 85.7759 38.2443 86.1855 37.7822C86.3919 37.5421 86.6211 37.3671 86.8499 37.2541ZM105.077 84.2187H93.2503C91.0695 84.2187 89.3015 86.0871 89.3015 88.3919C89.3015 90.6963 91.0695 92.5639 93.2503 92.5639H96.9415L87.3923 105.379L75.3095 91.2187L75.7855 90.6615C76.1507 90.2951 76.8711 89.5199 77.6323 88.3359C78.1203 87.5707 78.6239 86.6303 79.0207 85.5019C79.4151 84.3755 79.7019 83.0463 79.7019 81.5759C79.7011 80.0875 79.4047 78.7491 79.0007 77.6135C78.3891 75.9083 77.5499 74.6299 76.8627 73.7275C76.3971 73.1203 76.0071 72.7003 75.7551 72.4451L75.1959 71.7559L87.3839 56.7455L97.0003 70.3467H93.2503C91.0695 70.3467 89.3015 72.2151 89.3015 74.5199C89.3015 76.8243 91.0695 78.6931 93.2503 78.6931H104.881C106.379 78.6931 107.739 77.8055 108.41 76.3891C109.082 74.9739 108.94 73.2903 108.044 72.0219L92.6351 50.2299C93.0071 49.7347 93.4027 49.1903 93.8039 48.6111C94.6331 47.4079 95.4839 46.0667 96.1927 44.6303C96.5479 43.9091 96.8687 43.1619 97.1243 42.3463C97.3739 41.5303 97.5767 40.643 97.5815 39.5737C97.5719 36.7729 96.5667 34.1702 94.8431 32.1596C93.9779 31.1553 92.9171 30.3011 91.6855 29.6929C90.4571 29.0837 89.0563 28.7336 87.5967 28.7356C86.1371 28.7336 84.7355 29.0837 83.5079 29.6929C81.6595 30.6081 80.2007 32.0656 79.1959 33.7721C78.1915 35.4835 77.6143 37.4731 77.6111 39.5737C77.6171 40.643 77.8187 41.5303 78.0695 42.3475C78.5179 43.7687 79.1571 45.0131 79.8487 46.2087C80.6807 47.6319 81.6007 48.9455 82.4187 50.0447L69.9931 65.3483L57.5647 50.0427C57.8967 49.5967 58.2431 49.1215 58.5951 48.6111C59.4255 47.4079 60.2751 46.0667 60.9851 44.6303C61.3391 43.9091 61.6599 43.1619 61.9155 42.3463C62.1663 41.5303 62.3679 40.643 62.3735 39.5737C62.3631 36.7729 61.3591 34.1702 59.6355 32.1596C58.7695 31.1553 57.7083 30.3011 56.4771 29.6929C55.2483 29.0837 53.8475 28.7336 52.3883 28.7356C50.9287 28.7336 49.5271 29.0837 48.2995 29.6929C46.4507 30.6081 44.9923 32.0656 43.9871 33.7721C42.9827 35.4835 42.4055 37.4731 42.4035 39.5737C42.4083 40.643 42.6099 41.5303 42.8607 42.3475C43.3103 43.7687 43.9483 45.0131 44.6403 46.2087C45.5223 47.7151 46.4971 49.0943 47.3499 50.2299L31.941 72.0219C31.0447 73.2903 30.9027 74.9739 31.5738 76.3891C32.2458 77.8055 33.6059 78.6931 35.1042 78.6931H46.7347C48.9155 78.6931 50.6835 76.8243 50.6835 74.5199C50.6835 72.2151 48.9155 70.3467 46.7347 70.3467H42.9839L52.6011 56.7455L64.7891 71.7559L64.2391 72.4331C63.8627 72.8143 63.1499 73.5955 62.3983 74.7567C61.9031 75.5299 61.3903 76.4763 60.9843 77.6135C60.5799 78.7491 60.2827 80.0875 60.2827 81.5759C60.2827 83.0463 60.5695 84.3755 60.9643 85.5019C61.5627 87.1955 62.3879 88.4627 63.0655 89.3551C63.5435 89.9783 63.9467 90.4075 64.1947 90.6555L64.6755 91.2187L52.5927 105.379L43.0435 92.5639H46.7347C48.9155 92.5639 50.6835 90.6963 50.6835 88.3919C50.6835 86.0871 48.9155 84.2187 46.7347 84.2187H34.9083C33.3968 84.2187 32.0158 85.1327 31.3552 86.5691C30.6954 88.0055 30.8715 89.7183 31.8057 90.9735L47.2987 111.764C46.9419 112.242 46.5643 112.76 46.1811 113.314C45.3519 114.517 44.4999 115.858 43.7911 117.294C43.4371 118.016 43.1171 118.764 42.8619 119.578C42.6107 120.395 42.4083 121.281 42.4035 122.352C42.4131 125.152 43.4171 127.754 45.1407 129.766C46.0071 130.769 47.0679 131.624 48.2995 132.232C49.5271 132.841 50.9287 133.192 52.3883 133.19C53.8475 133.192 55.2483 132.841 56.4771 132.232C58.3255 131.316 59.7831 129.86 60.7891 128.152C61.7935 126.441 62.3699 124.451 62.3735 122.352C62.3679 121.282 62.1663 120.394 61.9155 119.577C61.4671 118.156 60.8279 116.911 60.1351 115.717C59.3223 114.324 58.4231 113.035 57.6183 111.951L69.9931 97.4495L82.3675 111.953C82.0511 112.38 81.7239 112.83 81.3895 113.314C80.5607 114.517 79.7087 115.858 78.9999 117.294C78.6459 118.016 78.3251 118.764 78.0695 119.578C77.8187 120.395 77.6171 121.281 77.6111 122.352C77.6215 125.152 78.6259 127.754 80.3495 129.766C81.2147 130.769 82.2767 131.624 83.5079 132.232C84.7355 132.841 86.1371 133.192 87.5967 133.19C89.0563 133.192 90.4571 132.841 91.6855 132.232C93.5343 131.316 94.9919 129.86 95.9979 128.152C97.0019 126.441 97.5787 124.451 97.5815 122.352C97.5767 121.282 97.3751 120.394 97.1243 119.577C96.6747 118.156 96.0367 116.911 95.3439 115.717C94.4807 114.24 93.5267 112.886 92.6859 111.764L108.179 90.9735C109.114 89.7183 109.289 88.0055 108.629 86.5691C107.97 85.1327 106.588 84.2187 105.077 84.2187Z" fill="black"/>
</svg>
