<svg width="422" height="68" viewBox="0 0 422 68" fill="none" xmlns="http://www.w3.org/2000/svg">
<path d="M22.4839 65.9678L5.49191 8.8478C5.04391 7.3758 4.56391 6.3198 4.05191 5.6798C3.53991 4.9758 2.64391 4.3358 1.36391 3.7598L0.211914 3.2798V2.3198H25.6519V3.2798L23.6359 4.0478C22.1639 4.6238 21.1719 5.3278 20.6599 6.1598C20.1479 6.9918 20.1159 8.1438 20.5639 9.6158L31.0279 49.5518L42.3559 16.0478L40.1479 9.2318C39.6999 7.8878 39.2839 6.8638 38.8999 6.1598C38.5159 5.4558 37.8759 4.8798 36.9799 4.4318L34.8679 3.2798V2.3198H58.9639V3.2798L55.9879 4.4318C54.7079 4.8798 53.9719 5.5518 53.7799 6.4478C53.6519 7.2798 53.8119 8.3678 54.2599 9.7118L66.4519 50.5118L77.9719 10.4798C78.4199 8.9438 78.5799 7.5998 78.4519 6.4478C78.3239 5.2958 77.5239 4.4638 76.0519 3.9518L74.0359 3.2798V2.3198H87.3799V3.2798L84.8839 4.2398C83.6039 4.6878 82.7079 5.3918 82.1959 6.3518C81.6839 7.3118 81.2359 8.4958 80.8519 9.9038L64.9159 65.9678H58.2919L43.8919 20.8478L29.1079 65.9678H22.4839ZM90.3463 65.6798V64.7198L92.5543 63.8558C93.6423 63.4078 94.3783 62.8318 94.7623 62.1278C95.2103 61.3598 95.4343 60.3358 95.4343 59.0558V8.9438C95.4343 7.6638 95.2423 6.6718 94.8583 5.9678C94.5383 5.1998 93.7703 4.5918 92.5543 4.1438L90.3463 3.2798V2.3198H136.33L136.906 17.1038H135.946L131.818 8.0798C131.242 6.9278 130.634 5.9998 129.994 5.2958C129.354 4.5918 128.394 4.2398 127.114 4.2398H109.834V31.9838H120.106C121.386 31.9838 122.346 31.6638 122.986 31.0238C123.69 30.3198 124.298 29.3918 124.81 28.2398L126.73 24.3998H127.69V41.6798H126.73L124.81 37.6478C124.234 36.4958 123.626 35.5998 122.986 34.9598C122.346 34.2558 121.386 33.9038 120.106 33.9038H109.834V63.7598H129.226C130.506 63.7598 131.498 63.4398 132.202 62.7998C132.906 62.0958 133.482 61.1358 133.93 59.9198L137.866 50.8958H138.826L138.25 65.6798H90.3463ZM143.404 65.6798V64.5278L176.716 4.2398H158.476C156.364 4.2398 154.636 4.7198 153.292 5.6798C152.012 6.6398 150.86 8.0478 149.836 9.9038L145.42 17.6798H144.46L145.132 2.3198H192.076V3.4718L158.764 63.7598H179.692C181.804 63.7598 183.468 63.2798 184.684 62.3198C185.964 61.2958 187.116 59.8558 188.14 57.9998L192.268 50.3198H193.228L192.556 65.6798H143.404ZM226.988 67.4078C223.084 67.4078 219.308 66.7038 215.66 65.2958C212.076 63.8878 208.844 61.8078 205.964 59.0558C203.148 56.2398 200.908 52.7518 199.244 48.5918C197.58 44.4318 196.748 39.5678 196.748 33.9998C196.748 28.4958 197.58 23.6638 199.244 19.5038C200.908 15.3438 203.18 11.8878 206.06 9.1358C208.94 6.3198 212.172 4.2078 215.756 2.7998C219.404 1.3278 223.148 0.591797 226.988 0.591797C230.892 0.591797 234.636 1.2958 238.22 2.7038C241.868 4.0478 245.1 6.1278 247.916 8.9438C250.796 11.6958 253.068 15.1838 254.732 19.4078C256.396 23.5678 257.228 28.4318 257.228 33.9998C257.228 39.4398 256.396 44.2718 254.732 48.4958C253.068 52.6558 250.796 56.1438 247.916 58.9598C245.1 61.7118 241.868 63.8238 238.22 65.2958C234.636 66.7038 230.892 67.4078 226.988 67.4078ZM226.988 65.3918C230.508 65.3918 233.356 64.4638 235.532 62.6078C237.708 60.6878 239.276 57.4558 240.236 52.9118C241.26 48.3038 241.772 41.9998 241.772 33.9998C241.772 25.9358 241.26 19.6318 240.236 15.0878C239.276 10.4798 237.708 7.2478 235.532 5.3918C233.356 3.4718 230.508 2.5118 226.988 2.5118C223.532 2.5118 220.716 3.4718 218.54 5.3918C216.364 7.2478 214.764 10.4798 213.74 15.0878C212.78 19.6318 212.3 25.9358 212.3 33.9998C212.3 41.9998 212.78 48.3038 213.74 52.9118C214.764 57.4558 216.364 60.6878 218.54 62.6078C220.716 64.4638 223.532 65.3918 226.988 65.3918ZM259.659 65.6798V64.7198L261.675 64.0478C262.955 63.5998 263.787 63.0238 264.171 62.3198C264.555 61.5518 264.747 60.4958 264.747 59.1518V8.9438C264.747 7.6638 264.555 6.6718 264.171 5.9678C263.851 5.1998 263.083 4.5918 261.867 4.1438L259.659 3.2798V2.3198H287.115C294.667 2.3198 300.459 3.7598 304.491 6.6398C308.523 9.4558 310.539 13.3918 310.539 18.4478C310.539 21.2638 309.483 24.0798 307.371 26.8958C305.259 29.7118 301.931 31.8878 297.387 33.4238L310.731 59.9198C311.307 61.0078 311.947 61.9038 312.651 62.6078C313.419 63.2478 314.411 63.8238 315.627 64.3358L316.875 64.8158V65.6798H299.691L285.483 35.4398H278.955V59.1518C278.955 60.3678 279.147 61.3598 279.531 62.1278C279.915 62.8958 280.715 63.4718 281.931 63.8558L284.235 64.7198V65.6798H259.659ZM278.955 33.5198H283.563C288.171 33.5198 291.499 32.3038 293.547 29.8718C295.595 27.3758 296.619 23.6958 296.619 18.8318C296.619 13.9038 295.659 10.2558 293.739 7.8878C291.819 5.4558 288.587 4.2398 284.043 4.2398H278.955V33.5198ZM319.94 65.6798V64.7198L322.148 63.8558C323.236 63.4078 323.972 62.8318 324.356 62.1278C324.804 61.3598 325.028 60.3358 325.028 59.0558V8.9438C325.028 7.6638 324.836 6.6718 324.452 5.9678C324.132 5.1998 323.364 4.5918 322.148 4.1438L319.94 3.2798V2.3198H365.924L366.5 17.1038H365.54L361.412 8.0798C360.836 6.9278 360.228 5.9998 359.588 5.2958C358.948 4.5918 357.988 4.2398 356.708 4.2398H339.428V31.9838H349.7C350.98 31.9838 351.94 31.6638 352.58 31.0238C353.284 30.3198 353.892 29.3918 354.404 28.2398L356.324 24.3998H357.284V41.6798H356.324L354.404 37.6478C353.828 36.4958 353.22 35.5998 352.58 34.9598C351.94 34.2558 350.98 33.9038 349.7 33.9038H339.428V63.7598H358.82C360.1 63.7598 361.092 63.4398 361.796 62.7998C362.5 62.0958 363.076 61.1358 363.524 59.9198L367.46 50.8958H368.42L367.844 65.6798H319.94ZM373.19 65.6798V64.7198L375.398 63.8558C376.486 63.4078 377.222 62.8318 377.606 62.1278C378.054 61.3598 378.278 60.3358 378.278 59.0558V8.9438C378.278 7.6638 378.086 6.6718 377.702 5.9678C377.382 5.1998 376.614 4.5918 375.398 4.1438L373.19 3.2798V2.3198H419.176L419.752 17.1038H418.792L414.664 8.0798C414.088 6.9278 413.48 5.9998 412.84 5.2958C412.2 4.5918 411.24 4.2398 409.96 4.2398H392.678V31.9838H402.952C404.232 31.9838 405.192 31.6638 405.832 31.0238C406.536 30.3198 407.144 29.3918 407.656 28.2398L409.576 24.3998H410.536V41.6798H409.576L407.656 37.6478C407.08 36.4958 406.472 35.5998 405.832 34.9598C405.192 34.2558 404.232 33.9038 402.952 33.9038H392.678V63.7598H412.072C413.352 63.7598 414.344 63.4398 415.048 62.7998C415.752 62.0958 416.328 61.1358 416.776 59.9198L420.712 50.8958H421.672L421.096 65.6798H373.19Z" fill="black"/>
</svg>
