<svg width="102" height="118" viewBox="0 0 102 118" fill="none" xmlns="http://www.w3.org/2000/svg">
<path d="M51.1129 0C60.8752 0 69.5715 1.68315 77.2017 5.04945C84.9442 8.41575 91.0036 13.2969 95.3798 19.6929C99.7559 25.9766 101.944 33.4386 101.944 42.0787C101.944 50.7189 99.7559 58.237 95.3798 64.6329C91.0036 70.9167 84.9442 75.7417 77.2017 79.108C69.5715 82.4743 60.8752 84.1575 51.1129 84.1575H41.3507V117.82H0.955078V0H51.1129ZM47.41 53.0192C51.674 53.0192 54.9281 52.0654 57.1723 50.1579C59.5287 48.1381 60.7069 45.445 60.7069 42.0787C60.7069 38.7124 59.5287 36.0755 57.1723 34.1679C54.9281 32.1482 51.674 31.1383 47.41 31.1383H41.3507V53.0192H47.41Z" fill="white"/>
</svg>
