<svg width="122" height="138" viewBox="0 0 122 138" fill="none" xmlns="http://www.w3.org/2000/svg">
<path d="M60.9528 10C70.715 10 79.4113 11.6832 87.0416 15.0495C94.7841 18.4157 100.843 23.2969 105.22 29.6929C109.596 35.9766 111.784 43.4386 111.784 52.0787C111.784 60.7189 109.596 68.237 105.22 74.6329C100.843 80.9167 94.7841 85.7417 87.0416 89.108C79.4113 92.4743 70.715 94.1575 60.9528 94.1575H51.1905V127.82H10.7949V10H60.9528ZM57.2498 63.0192C61.5138 63.0192 64.7679 62.0654 67.0121 60.1579C69.3685 58.1381 70.5467 55.445 70.5467 52.0787C70.5467 48.7124 69.3685 46.0755 67.0121 44.1679C64.7679 42.1482 61.5138 41.1383 57.2498 41.1383H51.1905V63.0192H57.2498Z" fill="white"/>
</svg>
