<svg width="180" height="180" viewBox="0 0 180 180" fill="none" xmlns="http://www.w3.org/2000/svg">
<rect width="178.58" height="178.58" transform="translate(0.580078 0.710205)" fill="black"/>
<path d="M90.5894 151.435C75.2166 151.435 62.7613 147.732 53.2235 140.326C43.6856 132.808 38.8045 121.755 38.5801 107.168H77.1242C77.4608 117.379 81.9492 122.485 90.5894 122.485C97.7708 122.485 101.362 119.96 101.362 114.911C101.362 112.33 99.9028 110.31 96.9854 108.851C94.1801 107.393 89.4673 105.709 82.8469 103.802C74.5434 101.333 67.6425 98.8646 62.1442 96.396C56.6459 93.8152 51.8209 89.8878 47.6691 84.6139C43.6295 79.3401 41.6097 72.4392 41.6097 63.9112C41.6097 56.9542 43.5734 50.8387 47.5008 45.5649C51.5403 40.1788 57.1508 36.027 64.3323 33.1096C71.6259 30.0799 79.9856 28.5651 89.4112 28.5651C97.8269 28.5651 105.682 29.9677 112.975 32.7729C120.381 35.466 126.44 39.9544 131.153 46.2381C135.978 52.4097 138.447 60.5449 138.559 70.6438H101.53C101.53 66.9409 100.576 63.8551 98.6685 61.3865C96.8732 58.8056 93.8996 57.5152 89.7478 57.5152C86.8304 57.5152 84.5862 58.1885 83.0152 59.535C81.5565 60.8815 80.8271 62.733 80.8271 65.0894C80.8271 67.6702 82.2859 69.69 85.2033 71.1487C88.1208 72.6075 92.8897 74.2906 99.5101 76.1982C107.814 78.5546 114.658 80.9671 120.045 83.4357C125.543 85.9044 130.312 89.7756 134.351 95.0495C138.503 100.211 140.579 107.056 140.579 115.584C140.579 121.98 138.727 127.927 135.025 133.425C131.322 138.811 125.711 143.188 118.193 146.554C110.675 149.808 101.474 151.435 90.5894 151.435Z" fill="white"/>
</svg>
