<svg width="179" height="180" viewBox="0 0 179 180" fill="none" xmlns="http://www.w3.org/2000/svg">
<rect width="178.58" height="178.58" transform="translate(0.15918 0.710205)" fill="black"/>
<path d="M89.112 -34.2898C98.8742 -34.2898 107.57 -32.6066 115.201 -29.2403C122.943 -25.874 129.003 -20.9929 133.379 -14.5969C137.755 -8.31318 139.943 -0.851223 139.943 7.78894C139.943 16.4291 137.755 23.9472 133.379 30.3431C129.003 36.6269 122.943 41.4519 115.201 44.8182C107.57 48.1845 98.8742 49.8677 89.112 49.8677H79.3497V83.5307H38.9541V-34.2898H89.112ZM85.409 18.7294C89.673 18.7294 92.9271 17.7756 95.1713 15.8681C97.5277 13.8483 98.7059 11.1552 98.7059 7.78894C98.7059 4.42264 97.5277 1.78571 95.1713 -0.121858C92.9271 -2.14164 89.673 -3.15153 85.409 -3.15153H79.3497V18.7294H85.409Z" fill="white"/>
</svg>
