<svg width="103" height="124" viewBox="0 0 103 124" fill="none" xmlns="http://www.w3.org/2000/svg">
<path d="M52.5894 123.725C37.2166 123.725 24.7613 120.022 15.2235 112.616C5.68563 105.098 0.804498 94.0451 0.580078 79.4578H39.1242C39.4608 89.6689 43.9492 94.7745 52.5894 94.7745C59.7708 94.7745 63.3616 92.2498 63.3616 87.2003C63.3616 84.6195 61.9028 82.5997 58.9854 81.141C56.1801 79.6822 51.4673 77.9991 44.8469 76.0915C36.5434 73.6229 29.6425 71.1543 24.1442 68.6857C18.6459 66.1048 13.8209 62.1775 9.66909 56.9036C5.62953 51.6297 3.60975 44.7288 3.60975 36.2009C3.60975 29.2439 5.57342 23.1284 9.50077 17.8545C13.5403 12.4685 19.1508 8.3167 26.3323 5.39924C33.6259 2.36957 41.9856 0.854736 51.4112 0.854736C59.8269 0.854736 67.6816 2.25736 74.9753 5.06261C82.3811 7.75565 88.4405 12.244 93.1533 18.5278C97.9783 24.6994 100.447 32.8346 100.559 42.9335H63.5299C63.5299 39.2305 62.5761 36.1448 60.6685 33.6761C58.8732 31.0953 55.8996 29.8049 51.7478 29.8049C48.8304 29.8049 46.5862 30.4782 45.0152 31.8247C43.5565 33.1712 42.8271 35.0227 42.8271 37.3791C42.8271 39.9599 44.2859 41.9797 47.2033 43.4384C50.1208 44.8971 54.8897 46.5803 61.5101 48.4879C69.8136 50.8443 76.6584 53.2568 82.0445 55.7254C87.5428 58.194 92.3117 62.0653 96.3513 67.3391C100.503 72.5008 102.579 79.3456 102.579 87.8736C102.579 94.2695 100.727 100.217 97.0246 105.715C93.3216 111.101 87.7111 115.477 80.193 118.844C72.675 122.098 63.4738 123.725 52.5894 123.725Z" fill="white"/>
</svg>
