<svg width="122" height="144" viewBox="0 0 122 144" fill="none" xmlns="http://www.w3.org/2000/svg">
<path d="M62.0093 133.033C46.6366 133.033 34.1812 129.33 24.6434 121.924C15.1056 114.406 10.2244 103.353 10 88.7658H48.5441C48.8808 98.9769 53.3692 104.082 62.0093 104.082C69.1908 104.082 72.7815 101.558 72.7815 96.5083C72.7815 93.9275 71.3227 91.9077 68.4053 90.4489C65.6 88.9902 60.8872 87.3071 54.2668 85.3995C45.9633 82.9309 39.0624 80.4623 33.5641 77.9936C28.0658 75.4128 23.2408 71.4855 19.089 66.2116C15.0494 60.9377 13.0297 54.0368 13.0297 45.5089C13.0297 38.5518 14.9933 32.4364 18.9207 27.1625C22.9603 21.7764 28.5708 17.6247 35.7522 14.7072C43.0458 11.6776 51.4055 10.1627 60.8311 10.1627C69.2469 10.1627 77.1016 11.5653 84.3952 14.3706C91.8011 17.0636 97.8604 21.552 102.573 27.8358C107.398 34.0073 109.867 42.1426 109.979 52.2415H72.9498C72.9498 48.5385 71.996 45.4528 70.0884 42.9841C68.2931 40.4033 65.3195 39.1129 61.1677 39.1129C58.2503 39.1129 56.0061 39.7861 54.4351 41.1327C52.9764 42.4792 52.2471 44.3306 52.2471 46.6871C52.2471 49.2679 53.7058 51.2877 56.6232 52.7464C59.5407 54.2051 64.3096 55.8883 70.93 57.7959C79.2336 60.1523 86.0784 62.5648 91.4644 65.0334C96.9627 67.502 101.732 71.3733 105.771 76.6471C109.923 81.8088 111.999 88.6536 111.999 97.1815C111.999 103.578 110.147 109.525 106.444 115.023C102.742 120.409 97.131 124.785 89.613 128.151C82.0949 131.406 72.8937 133.033 62.0093 133.033Z" fill="white"/>
</svg>
